PathFileType	4	(X/Y/Z)	./resultDataOpenSim/trcMotMarkerGrf/sub09/qtm-13-01.trc
DataRate	CameraRate	NumFrames	NumMarkers	Units	OrigDataRate	OrigDataStartFrame	OrigNumFrames
250.000000	250.000000	7	24	m	250.000000	403	536
Frame#	Time	L.Toe.Tip			R.Toe.Tip			L.Ankle.Lat			R.Ankle.Lat			L.Ankle.Med			R.Ankle.Med			L.Heel			R.Heel			L.Knee.Lat			R.Knee.Lat			L.Knee.Med			R.Knee.Med			L.Thigh.Upper			R.Thigh.Upper			L.ASIS			R.ASIS			V.Sacral			L.Acromium			R.Acromium			C7			L.Elbow			R.Elbow			L.Wrist.Lat			R.Wrist.Lat
		X1	Y1	Z1	X2	Y2	Z2	X3	Y3	Z3	X4	Y4	Z4	X5	Y5	Z5	X6	Y6	Z6	X7	Y7	Z7	X8	Y8	Z8	X9	Y9	Z9	X10	Y10	Z10	X11	Y11	Z11	X12	Y12	Z12	X13	Y13	Z13	X14	Y14	Z14	X15	Y15	Z15	X16	Y16	Z16	X17	Y17	Z17	X18	Y18	Z18	X19	Y19	Z19	X20	Y20	Z20	X21	Y21	Z21	X22	Y22	Z22	X23	Y23	Z23	X24	Y24	Z24

403	1.608	0.92839731	0.11498543	-0.072399194	1.0617078	0.040252416	0.07694873	0.83184553	0.23412748	-0.09708866	0.91352317	0.054564601	0.11661134	0.85911951	0.21804926	-0.0025071905	0.92763143	0.099143748	0.026946349	0.74922409	0.23646904	-0.047386189	0.84472358	0.034819018	0.06755849	1.1222138	0.52250644	-0.093653569	1.0183047	0.50032507	0.19121568	1.1213124	0.50695655	0.029644187	0.99436135	0.49422008	0.064748875	0.9481665	0.89612543	-0.10794745	0.94615689	0.9015735	0.26523694	1.0227464	0.9826935	-0.050301558	1.0331116	0.99020644	0.18967778	0.86329922	1.0437344	0.075552407	1.0217708	1.4283056	-0.11808946	1.026679	1.4571462	0.21143451	0.96036902	1.4918367	0.047010147	0.84890427	1.1043794	-0.15862409	0.85867122	1.1470832	0.32604114	0.9621242	0.86643671	-0.20405026	0.97070538	0.89719491	0.35317035
404	1.612	0.9452624	0.11309007	-0.072163147	1.061789	0.040231655	0.077062419	0.84597846	0.22975069	-0.097366955	0.91358049	0.054697677	0.11657758	0.8734004	0.21439828	-0.0027218015	0.92796066	0.099371699	0.026983884	0.76322893	0.23032357	-0.048000665	0.84499829	0.035017526	0.067627274	1.1304802	0.52442282	-0.09349311	1.0191946	0.50020872	0.1915386	1.1297078	0.50895974	0.029883911	0.99532669	0.49430993	0.064951284	0.95412351	0.8970539	-0.10833322	0.95022366	0.90205889	0.26511779	1.0279763	0.98365721	-0.050129893	1.0377791	0.9907374	0.18988582	0.86823998	1.0443494	0.07529762	1.0262133	1.429068	-0.11814156	1.0313597	1.4578833	0.2113754	0.96498903	1.4925582	0.047011933	0.85317841	1.1052821	-0.1583981	0.86383357	1.1476155	0.3262069	0.96583915	0.86714339	-0.20406192	0.97634618	0.89792494	0.35306518
405	1.616	0.96232754	0.11115777	-0.071881896	1.0619298	0.040223955	0.077149391	0.86024766	0.22525921	-0.097606219	0.91361077	0.054848915	0.11653087	0.88768808	0.21066979	-0.002858537	0.92841723	0.099626355	0.027020151	0.77730187	0.22407364	-0.048533056	0.84516639	0.035267741	0.067573875	1.138541	0.52622777	-0.093345852	1.0200636	0.5000921	0.19183432	1.1384929	0.51087179	0.030259654	0.99653107	0.49430834	0.065160906	0.96018374	0.8979049	-0.10877943	0.95429423	0.90251964	0.26499654	1.0332135	0.9845517	-0.049970233	1.0424416	0.9912275	0.19008944	0.87328523	1.0448958	0.074976984	1.030671	1.4297893	-0.11818589	1.0360292	1.4585653	0.21132147	0.96961716	1.4932256	0.047020277	0.8574651	1.1061394	-0.15818331	0.86893041	1.1480653	0.32630221	0.96957528	0.86780442	-0.20406691	0.9819758	0.89859815	0.35296174
406	1.62	0.9795036	0.10917926	-0.071573049	1.0621011	0.040202868	0.077229303	0.87464393	0.22066589	-0.0977966	0.9136143	0.055018044	0.11647062	0.90208533	0.20686582	-0.0029480956	0.92891776	0.099857899	0.027083341	0.79152572	0.21770753	-0.049024708	0.84524275	0.035531775	0.067390677	1.1463774	0.52793667	-0.093232602	1.0209163	0.4999744	0.19208983	1.1471301	0.51269865	0.030617515	0.99796774	0.49419414	0.065364179	0.96616629	0.8986831	-0.10919331	0.9583625	0.90295411	0.26486746	1.0384635	0.98537496	-0.049828842	1.0471025	0.99167933	0.19028884	0.87851298	1.0453647	0.074559033	1.0351413	1.4304667	-0.11822193	1.0407103	1.4592025	0.21128973	0.9742532	1.4938392	0.047034716	0.8617772	1.1069494	-0.15798509	0.87398017	1.1484439	0.32634573	0.97333853	0.86841051	-0.20406788	0.98759172	0.89921317	0.35285752
407	1.624	0.99666994	0.10717872	-0.071214773	1.0622437	0.040145775	0.077327526	0.88915878	0.21598666	-0.097931991	0.91360877	0.055199202	0.11639312	0.91662464	0.20299559	-0.0029968547	0.92933868	0.10001344	0.027152135	0.80601842	0.21120369	-0.049515793	0.84527903	0.035767749	0.067104863	1.1540693	0.5295587	-0.093143761	1.0217743	0.49986738	0.19230076	1.1553045	0.51442095	0.030883407	0.99948408	0.49404152	0.065562623	0.97203818	0.89939081	-0.10954311	0.96241647	0.90335663	0.2647154	1.0437152	0.98612592	-0.049701334	1.0517691	0.99209507	0.19048232	0.88387319	1.0457573	0.074069034	1.0396288	1.4310883	-0.11825309	1.0454122	1.4597994	0.21129698	0.97889066	1.4944086	0.047048106	0.86611532	1.1077063	-0.15780794	0.87900707	1.1487624	0.3263653	0.97713365	0.86895683	-0.20407194	0.99319335	0.8997668	0.35275058
408	1.628	1.013774	0.10519243	-0.070780464	1.0623235	0.040049267	0.077457266	0.9037946	0.21123624	-0.098013804	0.91361539	0.055384001	0.1162889	0.93130273	0.19907707	-0.0030013465	0.92959095	0.10007879	0.027133556	0.82076864	0.20456248	-0.049969765	0.84532558	0.035976864	0.066761922	1.1616815	0.53109902	-0.093058825	1.0226451	0.4997865	0.1924825	1.1631069	0.51602527	0.031092398	1.0009743	0.49391779	0.065769924	0.9779264	0.90002634	-0.10987895	0.96644669	0.90372139	0.26452777	1.0489536	0.98680298	-0.049578695	1.056449	0.99247395	0.19066929	0.88917431	1.0460839	0.073575524	1.0441403	1.4316459	-0.11828102	1.0501146	1.4603473	0.21133829	0.98353248	1.4949346	0.047053403	0.87047027	1.1084054	-0.15764738	0.88402333	1.1490237	0.32637606	0.98095667	0.8694563	-0.20408112	0.99878081	0.90025913	0.35263969
409	1.632	1.0308752	0.10325165	-0.070272064	1.0623595	0.039939529	0.077617726	0.91856155	0.20642863	-0.098046154	0.91364069	0.055565174	0.11614622	0.94611161	0.19512977	-0.0029577389	0.92968337	0.10009684	0.026961714	0.8356865	0.19781188	-0.05032525	0.84541677	0.036193328	0.066409409	1.1692109	0.53254821	-0.092960933	1.0235137	0.49973625	0.19266413	1.1707126	0.51751657	0.031291038	1.0024207	0.49384268	0.065975998	0.98388637	0.90058832	-0.11023258	0.97046349	0.9040531	0.26431172	1.0541812	0.98740572	-0.049461834	1.0611431	0.99281295	0.19084975	0.89424799	1.0463402	0.073095735	1.0486789	1.4321444	-0.1183027	1.0547831	1.4608291	0.21138476	0.98818716	1.4954029	0.047053878	0.87484379	1.1090451	-0.1574945	0.88903098	1.1492245	0.32638115	0.98480196	0.86992287	-0.20408985	1.0043528	0.90069206	0.35252391
